<svg xmlns="http://www.w3.org/2000/svg" width="640" height="400"><defs><linearGradient id="s" x2="0" y2="1"><stop stop-color="#ebc6a0"/><stop offset="1" stop-color="#fae2b8"/></linearGradient><linearGradient id="w" x2="0" y2="1"><stop stop-color="#7caaa6"/><stop offset="1" stop-color="#386e79"/></linearGradient></defs><path fill="url(#s)" d="M0 0h640v400H0"/><circle cx="434" cy="87" r="36" fill="#fff0cc"/><path fill="url(#w)" d="M0 174h640v226H0"/><path fill="#af8364" d="m0 141 71 21 38 67 74 24 50 55 90 20 54 72H0"/><path fill="#dfb286" d="m0 155 42 40 30 58 80 29 29 53 102 19 44 46H0"/><path d="m76 234 71 47 48 46 96 34 47 39" fill="none" stroke="#f7e8c4" stroke-width="9"/><path d="M373 232h182m-120 20h156m-273 27h102m57 45h160" stroke="#b4cdc0" opacity=".4" stroke-width="3"/></svg>
