<svg xmlns="http://www.w3.org/2000/svg" width="640" height="400"><defs><linearGradient id="s" x2="0" y2="1"><stop stop-color="#a8b99a"/><stop offset="1" stop-color="#426f63"/></linearGradient></defs><path fill="url(#s)" d="M0 0h640v400H0"/><path d="m305 0-49 400h99L411 0" fill="#e4deb2" opacity=".25"/><path d="m120 0-17 400h28L141 0m280 0-4 400h24L430 0m100 0 23 400h23L529 0" fill="#557c69"/><path d="M51 0 29 400h38L89 0m468 0 21 400h46L565 0" fill="#264d43"/><path d="M0 297q136-49 291 16t349-5v92H0" fill="#315d4a"/><path d="M240 400q146-31 119-73l-13-9q68 45 15 82" fill="#b9b897"/><path d="m0 183 118-67L78 96 0 121m640 104-114-72 18-30 96 42" fill="#264d43"/><g fill="#d7d3a4"><circle cx="315" cy="133" r="2"/><circle cx="290" cy="194" r="3"/><circle cx="366" cy="235" r="2"/><circle cx="331" cy="266" r="2"/></g></svg>
